<svg width="37" height="36" viewBox="0 0 37 36" fill="none" xmlns="http://www.w3.org/2000/svg">
<path d="M8.8 35.76C7.2 35.76 5.70667 35.1467 4.32 33.92C2.98667 32.64 1.92 30.9867 1.12 28.96C0.373333 26.9333 0 24.7733 0 22.48C0 18.96 0.613333 15.6533 1.84 12.56C3.12 9.41333 4.66667 6.77333 6.48 4.64C8.29333 2.45333 10.0267 0.906668 11.68 0H11.76L14.56 2.56V3.68C13.2267 4.90667 11.9733 6.66667 10.8 8.96C9.62667 11.2 9.04 13.9733 9.04 17.28C9.04 18.9867 9.28 20.3733 9.76 21.44C10.24 22.5067 10.96 23.68 11.92 24.96C12.72 25.9733 13.3067 26.8533 13.68 27.6C14.0533 28.3467 14.24 29.2533 14.24 30.32C14.24 31.92 13.7067 33.2267 12.64 34.24C11.6267 35.2533 10.3467 35.76 8.8 35.76ZM31.04 35.76C29.44 35.76 27.9733 35.1467 26.64 33.92C25.3067 32.64 24.24 30.9867 23.44 28.96C22.6933 26.9333 22.32 24.7733 22.32 22.48C22.32 18.96 22.9333 15.6533 24.16 12.56C25.44 9.41333 26.9867 6.74667 28.8 4.56C30.6133 2.37333 32.3467 0.853332 34 0H34.08L36.8 2.56V3.68C35.4667 4.90667 34.2133 6.66667 33.04 8.96C31.8667 11.2 31.28 13.9733 31.28 17.28C31.28 18.9867 31.52 20.3733 32 21.44C32.48 22.5067 33.2 23.68 34.16 24.96C34.96 25.9733 35.5467 26.8533 35.92 27.6C36.2933 28.3467 36.48 29.2533 36.48 30.32C36.48 31.92 35.9467 33.2267 34.88 34.24C33.8667 35.2533 32.5867 35.76 31.04 35.76Z" fill="#FFC9B0"/>
</svg>
