<svg width="30" height="60" viewBox="0 0 30 60" fill="none" xmlns="http://www.w3.org/2000/svg">
<path d="M25.8161 59.7527C26.1369 56.7983 24.6397 56.3605 22.2769 56.4407C17.4376 56.6011 12.5883 56.5577 7.74567 56.4541C5.48645 56.4073 3.81543 56.7415 4.17303 59.7961C2.89637 59.863 1.75339 59.9198 0.256159 60C0.0756885 52.447 4.98181 48.6605 10.6833 45.0577C4.77794 41.4183 0.0790307 37.3811 0.149214 29.9617C0.216054 22.6727 4.61418 18.542 10.7669 15.0429C5.09878 11.4635 0.139187 7.68034 0.249475 0.227584C2.27809 0.0604818 4.27329 -0.771686 4.45711 2.34978C4.47716 2.71072 5.59006 3.28555 6.19831 3.29558C12.0603 3.36242 17.9255 3.35908 23.7908 3.28555C24.4024 3.27887 25.5153 2.70738 25.5354 2.35312C25.7058 -0.768344 27.7043 0.0471135 29.7296 0.23761C29.8499 7.6135 24.9204 11.3198 19.3325 14.9927C25.1844 18.5487 29.8499 22.6226 29.8533 29.9818C29.8566 37.341 25.2179 41.4383 19.2757 45.0644C24.9906 48.6371 29.8299 52.4136 29.7664 59.7627H25.8128L25.8161 59.7527ZM14.8375 33.4308C14.8375 33.4308 14.8375 33.4375 14.8375 33.4408C17.1301 33.4408 19.4261 33.4408 21.7188 33.4408C25.7894 33.4375 26.4578 32.5752 25.8428 28.4812C25.6423 27.1477 25.1443 26.5395 23.7474 26.5495C17.8854 26.5896 12.0235 26.5094 6.16489 26.6464C5.51653 26.6631 4.59747 27.6657 4.33011 28.4043C4.00259 29.31 4.23319 30.4162 4.21648 31.4389C4.19308 32.9529 4.92165 33.5076 6.42891 33.4608C9.22954 33.374 12.0335 33.4341 14.8375 33.4341V33.4308ZM21.8324 22.3385C21.9427 22.0879 22.053 21.8372 22.1632 21.5866C19.7403 20.213 17.3139 17.7666 14.891 17.7666C12.5181 17.7666 10.1453 20.2564 7.77575 21.6534C7.90275 21.8807 8.03309 22.1113 8.16009 22.3385H21.8324ZM22.1131 8.21172C22.0229 7.99115 21.9326 7.77057 21.8424 7.54666H8.09325C7.98964 7.7572 7.88938 7.97109 7.78578 8.18164C10.0216 9.58864 12.2474 11.019 14.5133 12.3726C14.794 12.5397 15.3923 12.426 15.7131 12.2289C17.8654 10.9221 19.9809 9.55522 22.1098 8.20838L22.1131 8.21172ZM7.66881 37.6351C12.8122 43.4168 19.3192 43.2664 21.9928 37.4446C17.5947 37.4446 13.2701 37.4446 8.94881 37.4512C8.63131 37.4512 8.31382 37.5381 7.67215 37.6351H7.66881ZM22.327 52.3534C16.7257 46.7288 10.9841 46.8658 8.28374 52.3534H22.327Z" fill="#C1DFA6"/>
</svg>
